<svg 
  width="16" 
  height="16" 
  viewBox="0 0 16 16" 
  fill="none" 
  xmlns="http://www.w3.org/2000/svg"
>
  <path 
    fill-rule="evenodd" 
    clip-rule="evenodd" 
    d="M8 0C3.58 0 0 3.58 0 8C0 11.54 2.29 14.43 5.47 15.5C5.88 15.57 6.02 15.34 6.02 15.14C6.02 14.96 6.01 14.49 6.01 13.87C4 14.25 3.48 13.15 3.48 13.15C3.13 12.3 2.63 12.09 2.63 12.09C1.91 11.62 2.68 11.63 2.68 11.63C3.47 11.69 3.88 12.45 3.88 12.45C4.58 13.62 5.68 13.3 6.13 13.13C6.2 12.64 6.39 12.32 6.61 12.12C4.83 11.92 2.93 11.2 2.93 7.97C2.93 7.05 3.26 6.3 3.79 5.72C3.7 5.52 3.4 4.66 3.87 3.5C3.87 3.5 4.55 3.28 6.02 4.37C6.67 4.18 7.33 4.09 8 4.09C8.67 4.09 9.33 4.18 9.98 4.37C11.45 3.28 12.13 3.5 12.13 3.5C12.6 4.66 12.3 5.52 12.21 5.72C12.74 6.3 13.07 7.05 13.07 7.97C13.07 11.21 11.17 11.91 9.39 12.11C9.67 12.37 9.92 12.86 9.92 13.62C9.92 14.55 9.91 15.22 9.91 15.14C9.91 15.34 10.05 15.57 10.46 15.5C13.71 14.43 16 11.54 16 8C16 3.58 12.42 0 8 0Z" 
    fill="white"
  />
</svg>
